<svg width="500" height="500" xmlns="http://www.w3.org/2000/svg" version="1.1">
 <metadata id="metadata12">image/svg+xml</metadata>

 <g>
  <title>Layer 1</title>
  <path stroke-width="0" stroke="#ed7878" fill="#ffffff" d="m127.51179,267.4172c9.30714,3.40291 28.7193,6.78583 44.41737,6.78583c16.91482,0 26.32967,-4.68345 27.08366,-11.95203c0.68617,-6.6303 -6.23934,-7.5279 -25.34032,-12.05181c-26.3935,-6.47072 -43.23253,-16.48797 -41.58094,-32.49721c1.91888,-18.58635 26.79244,-32.63284 64.9585,-32.63284c18.6063,0 36.64612,1.3125 45.99316,4.37631l-3.20744,23.4374c-6.06779,-2.11036 -29.29376,-5.04253 -45.0038,-5.04253c-15.92945,0 -24.17542,5.01062 -24.7459,10.50395c-0.71808,6.95343 7.55981,7.27656 28.25254,12.78585c28.02116,7.10901 40.27243,17.11828 38.66872,32.63683c-1.87898,18.25528 -24.25921,33.77778 -68.94785,33.77778c-18.60231,0 -34.63549,-3.3949 -43.4679,-6.7899l2.91621,-23.33364l0.00399,-0.00399zm262.59862,-76.51962c101.74823,-19.18476 110.52878,15.28717 107.38518,45.78969l-5.92418,56.42926l-32.29773,0l5.40556,-51.46651c1.16888,-11.33373 8.44544,-33.50252 -26.68473,-32.67273c-12.15952,0.29521 -18.18742,1.96275 -18.18742,1.96275c0,0 -1.05718,13.69542 -2.33776,23.81639l-6.12364,58.3601l-31.6754,0l6.28721,-57.51835l4.15291,-44.7006zm-128.51275,-2.66888c7.2606,-0.78989 18.41481,-1.59174 33.76581,-1.59174c25.62755,0 46.34821,4.46008 59.17794,13.83903c11.52123,8.74465 19.18875,22.90283 17.06642,43.41604c-1.95877,19.08902 -11.88426,32.4533 -26.33367,40.7192c-13.22069,7.7952 -29.88019,11.1263 -54.93327,11.1263c-14.77255,0 -28.86291,-0.7978 -39.57829,-2.3856l10.83905,-105.12323l-0.00399,0zm21.17544,84.22704c2.4694,0.47872 5.71673,0.95345 12.11963,0.95345c25.63553,0 43.71125,-12.59835 45.5264,-30.31104c2.63696,-25.60361 -13.39622,-34.5557 -40.40807,-34.40012c-3.49866,0 -8.36167,0 -10.9348,0.47074l-6.30715,63.28298l0.00399,0.00399z" id="path4"/>
  <path stroke-width="0" stroke="#ed7878" fill="#ffffff" d="m109.14086,293.99823c-6.07577,2.1063 -18.66215,3.5425 -36.24719,3.5425c-50.56893,0 -77.86403,-23.7366 -74.63665,-55.11678c3.86169,-37.38814 44.29769,-58.42395 88.57144,-58.42395c17.1462,0 27.24323,1.38031 36.70197,3.69413l-3.03589,25.18872c-6.2912,-2.11834 -21.03582,-4.06514 -32.97194,-4.06514c-26.05042,0 -48.17532,7.75928 -50.71255,32.30572c-2.26196,21.94937 13.26856,32.4413 42.57429,32.4413c10.20075,0 25.24058,-1.46005 32.19401,-3.57042l-2.43749,24.00392z" id="path6"/>
 </g>
</svg>